HIERARCHY
ROOT Hips
{
	OFFSET 0.00000 0.00000 0.00000
	CHANNELS 6 Xposition Yposition Zposition Zrotation Yrotation Xrotation 
	JOINT LHipJoint
	{
		OFFSET 0 0 0
		CHANNELS 3 Zrotation Yrotation Xrotation
		JOINT LeftHip
		{
			OFFSET 1.62067 -1.77917 0.70989
			CHANNELS 3 Zrotation Yrotation Xrotation
			JOINT LeftKnee
			{
				OFFSET 2.34532 -6.44371 0.00000
				CHANNELS 3 Zrotation Yrotation Xrotation
				JOINT LeftAnkle
				{
					OFFSET 2.74224 -7.53425 0.00000
					CHANNELS 3 Zrotation Yrotation Xrotation
					JOINT LeftToe
					{
						OFFSET 0.17032 -0.46794 2.08086
						CHANNELS 3 Zrotation Yrotation Xrotation
						End Site
						{
							OFFSET 0.00000 -0.00000 1.07476
						}
					}
				}
			}
		}
	}
	JOINT RHipJoint
	{
		OFFSET 0 0 0
		CHANNELS 3 Zrotation Yrotation Xrotation
		JOINT RightHip
		{
			OFFSET -1.55811 -1.77917 0.70989
			CHANNELS 3 Zrotation Yrotation Xrotation
			JOINT RightKnee
			{
				OFFSET -2.33243 -6.40830 0.00000
				CHANNELS 3 Zrotation Yrotation Xrotation
				JOINT RightAnkle
				{
					OFFSET -2.78798 -7.65993 0.00000
					CHANNELS 3 Zrotation Yrotation Xrotation
					JOINT RightToe
					{
						OFFSET -0.22707 -0.62388 2.04059
						CHANNELS 3 Zrotation Yrotation Xrotation
						End Site
						{
							OFFSET -0.00000 -0.00000 1.07030
						}
					}
				}
			}
		}
	}
	JOINT lowerback
	{
		OFFSET 0 0 0
		CHANNELS 3 Zrotation Yrotation Xrotation
		JOINT Chest
		{
			OFFSET 0.02203 1.91565 0.07161
			CHANNELS 3 Zrotation Yrotation Xrotation
			JOINT Chest2
			{
				OFFSET 0.01740 1.90525 0.11636
				CHANNELS 3 Zrotation Yrotation Xrotation
				JOINT lowerneck
				{
					OFFSET 0 0 0
					CHANNELS 3 Zrotation Yrotation Xrotation
					JOINT Neck
					{
						OFFSET -0.10841 1.83566 0.05067
						CHANNELS 3 Zrotation Yrotation Xrotation
						JOINT Head
						{
							OFFSET 0.06601 1.74760 -0.50505
							CHANNELS 3 Zrotation Yrotation Xrotation
							End Site
							{
								OFFSET 0.03102 1.85215 -0.17697
							}
						}
					}
				}
				JOINT LeftCollar
				{
					OFFSET 0 0 0
					CHANNELS 3 Zrotation Yrotation Xrotation
					JOINT LeftShoulder
					{
						OFFSET 2.87059 1.35470 0.16111
CHANNELS 3 Zrotation Xrotation Yrotation
						JOINT LeftElbow
						{
OFFSET 0 -5.435920 0.000000
CHANNELS 3 Zrotation Xrotation Yrotation
							JOINT LeftWrist
							{
OFFSET 0 -3.254600 0.000000
CHANNELS 3 Zrotation Xrotation Yrotation
								JOINT lhand
								{
									OFFSET 0 0 0
CHANNELS 3 Zrotation Xrotation Yrotation
									JOINT LFingers
									{
OFFSET 0 -0.498240 0.000000
CHANNELS 3 Zrotation Xrotation Yrotation
										End Site
										{
OFFSET 0 -0.401700 0.000000
										}
									}
								}
								JOINT LThumb
								{
OFFSET 0 0.000000 0.000000
CHANNELS 3 Zrotation Xrotation Yrotation
									End Site
									{
OFFSET 0 -0.407830 0.407830
									}
								}
							}
						}
					}
				}
				JOINT RightCollar
				{
					OFFSET 0 0 0
					CHANNELS 3 Zrotation Yrotation Xrotation
					JOINT RightShoulder
					{
						OFFSET -2.86643 1.23488 0.45957
CHANNELS 3 Zrotation Xrotation Yrotation
						JOINT RightElbow
						{
OFFSET 0 -5.338300 0.000000
CHANNELS 3 Zrotation Xrotation Yrotation
							JOINT RightWrist
							{
OFFSET 0 -3.231480 0.000000
CHANNELS 3 Zrotation Xrotation Yrotation
								JOINT rhand
								{
									OFFSET 0 0 0
CHANNELS 3 Zrotation Xrotation Yrotation
									JOINT RFingers
									{
OFFSET 0 -0.463640 0.000000
CHANNELS 3 Zrotation Xrotation Yrotation
										End Site
										{
OFFSET 0 -0.373800 0.000000
										}
									}
								}
								JOINT RThumb
								{
OFFSET 0 0.000000 0.000000
CHANNELS 3 Zrotation Xrotation Yrotation
									End Site
									{
OFFSET 0 -0.379510 0.379510
									}
								}
							}
						}
					}
				}
			}
		}
	}
}
MOTION
Frames: 5
Frame Time: 0.008333333333333333
2.563600 14.965800 -43.528500 6.272900 10.739400 42.783900 0.000000 0.000000 0.000000 -27.449700 -6.457200 -19.472100 2.846200 10.441800 30.419700 3.006600 6.125900 -35.313900 1.844900 -8.535200 -24.351800 0.000000 0.000000 0.000000 2.643300 19.560400 -98.726800 -11.624400 -18.227300 64.793300 0.356300 -14.868100 -16.676700 -1.014300 -6.407600 17.971800 3.677100 -0.580700 15.456200 7.294000 0.194600 4.802300 5.630400 0.087800 -3.571500 -8.440200 -7.728100 -14.985000 9.946300 -9.986500 9.340100 3.505200 -4.441800 6.217500 -0.000000 0.000000 0.000000 66.166500 -50.920100 -15.014100 17.280000 -27.225500 4.214700 54.885000 -35.272200 36.060000 0.000000 0.000000 0.000000 -7.125000 0.000000 0.000000 10.789900 -20.958400 14.127200 -0.000000 0.000000 0.000000 -34.949400 -56.112200 19.782900 -13.229500 -21.622500 -2.537200 -52.083200 58.313000 50.996200 0.000000 0.000000 0.000000 7.125000 0.000000 -0.000000 177.807900 3.537200 -2.054200
2.584298 14.925074 -43.353234 5.880970 9.949791 43.702875 0.000000 0.000000 0.000000 -27.407153 -6.140877 -20.309718 2.933210 10.586115 30.896340 2.926106 5.664592 -34.663814 1.906133 -8.667728 -24.761362 0.000000 0.000000 0.000000 2.352850 20.328544 -99.669348 -11.851892 -18.327247 65.518514 0.320461 -14.680568 -16.863753 -0.909753 -6.077478 17.009607 3.760086 0.018886 16.349014 7.298312 1.083006 4.492397 5.437022 0.521510 -4.444095 -7.525441 -7.858041 -14.055484 9.705009 -10.306368 8.510244 3.281829 -4.626362 5.770182 0.000000 0.000000 0.000000 69.449895 -54.168614 -15.673865 16.995012 -26.851106 4.085143 55.539207 -37.401462 36.687375 0.000000 0.000000 0.000000 -7.125000 0.000000 0.000000 10.865794 -22.031464 14.340989 0.000000 0.000000 0.000000 -36.796837 -55.997783 18.237316 -13.221163 -21.610330 -2.534134 -52.983585 58.255983 50.288331 0.000000 0.000000 0.000000 7.125000 0.000000 0.000000 177.189628 3.441278 -2.639891
2.610313 14.876099 -43.191348 5.360726 9.177412 45.585579 0.000000 0.000000 0.000000 -27.208613 -6.563642 -22.154142 3.035160 10.751692 31.447036 2.773848 5.503905 -33.755359 1.903301 -8.661768 -24.742814 0.000000 0.000000 0.000000 1.798807 21.132983 -101.656921 -11.995430 -18.388700 65.974269 0.211300 -14.114143 -17.435106 -1.089972 -6.632355 18.631472 3.604591 0.825057 15.739548 7.591514 2.087078 4.285238 5.644167 1.012595 -4.422251 -6.729190 -7.970750 -13.304416 9.226796 -10.503056 7.337972 3.024271 -4.777562 5.226630 0.000000 0.000000 0.000000 69.583735 -57.114949 -15.451471 16.953088 -26.795939 4.066210 56.243364 -34.624461 33.989955 0.000000 0.000000 0.000000 -7.125000 0.000000 0.000000 12.241600 -19.564440 15.917562 0.000000 0.000000 0.000000 -39.759962 -56.054391 15.716364 -13.206777 -21.589453 -2.528867 -52.706231 57.629711 49.704834 0.000000 0.000000 0.000000 7.125000 0.000000 0.000000 176.993876 2.820094 -2.858696
2.634295 14.835846 -43.018088 5.104950 8.685226 47.393284 0.000000 0.000000 0.000000 -26.971302 -7.252758 -23.672540 3.107960 10.867676 31.835069 2.567234 5.374840 -32.525462 1.892565 -8.638568 -24.671091 0.000000 0.000000 0.000000 1.092707 21.639896 -103.467610 -12.148266 -18.452511 66.457819 0.081741 -13.557321 -18.267326 -1.285870 -7.182744 20.259035 3.497372 1.531723 15.367412 7.900058 2.998004 4.057125 5.865877 1.460016 -4.554230 -5.991347 -8.209520 -12.541791 8.886159 -10.862968 6.084849 2.813620 -5.006498 4.681756 0.000000 0.000000 0.000000 71.466851 -60.131854 -15.136682 17.039979 -26.910409 4.105415 55.713454 -36.813828 37.942111 0.000000 0.000000 0.000000 -7.125000 0.000000 0.000000 10.434273 -23.425937 13.876733 0.000000 0.000000 0.000000 -42.633402 -55.878568 12.707827 -13.269360 -21.680590 -2.551932 -53.008159 59.056196 50.574693 0.000000 0.000000 0.000000 7.125000 0.000000 0.000000 177.321856 3.682431 -2.504164
2.660642 14.804292 -42.841935 4.964937 8.267019 49.048359 0.000000 0.000000 0.000000 -26.787701 -8.115776 -24.890208 3.165251 10.957758 32.137532 2.362243 5.491655 -31.381477 1.930587 -8.719872 -24.922963 0.000000 0.000000 0.000000 0.319427 22.022043 -104.984138 -12.270366 -18.502553 66.843309 0.022197 -13.357026 -18.717737 -1.213033 -6.985523 19.673066 3.453194 2.217751 15.413236 8.189650 3.933277 3.787747 6.019842 1.918933 -4.965936 -5.147017 -8.470057 -12.101014 8.272691 -11.248904 5.199208 2.494548 -5.245664 4.279544 0.000000 0.000000 0.000000 76.010989 -63.547758 -13.831655 16.978825 -26.829833 4.077794 55.085148 -39.403102 40.146598 0.000000 0.000000 0.000000 -7.125000 0.000000 0.000000 9.220430 -25.287057 12.384594 0.000000 0.000000 0.000000 -44.782507 -54.744970 9.936742 -13.803241 -22.451814 -2.753151 -54.536172 62.092890 52.138588 0.000000 0.000000 0.000000 7.125000 0.000000 0.000000 177.653489 5.714848 -2.104849
